<svg id="Layer_1" data-name="Layer 1" xmlns="http://www.w3.org/2000/svg" viewBox="0 0 1095.516 200.499">
  <title>logo</title>
  <path d="M171.13,30.676S145.082,10.6,128.8,38.273c0,0,1.809,10.13,5.788,11.758l-4.341,4.161s-5.427-3.419-7.236-15.277c0,0-9.225-2.975-17.184,0S92.262,50.936,92.262,50.936s8.14,4.522,5.246,15.918l-5.246-1.809s4.884-12.12-15.557-11.215C63.5,54.192,57.712,68.3,57.712,68.3s-21.345-3.8-25.325,20.26-12.481,21.526,6.332,36.721c0,0-5.789,38.71,34.369,27.495,0,0-2.895-24.239,27.857-25.325l.361,5.97s-37.625-.453-14.561,36.992c37.444,26.59,36.359-16.552,53.724,5.7,0,0,7.326-31.747,54.81-33.646s59.965,28.762,55.352,40.158c0,0,34.188,3.527,46.4-20.893,5.155-9.768,1.356-24.692,1.356-24.692s9.5-4.341,5.156-17.094-21.979-13.024-39.615-10.582-10.854,25.506-31.475,24.692c-6.241-.814-10.582-8.412-10.582-8.412l4.884-3.527s4.341,8.14,11.124,6.241,8.683-18.994,20.893-23.607,30.39-4.07,38.8.272c0,0,4.764-9.406-3.075-16.28-4.944-3.618-12.9-.121-12.9-.121s1.688-11.336-3.859-16.28-12.663-3.015-12.663-3.015-.844-13.144-9.888-17.365-19.295,3.618-19.295,3.618-.844-12.663-12.663-17.245-18.089,2.17-18.089,2.17-5.185-13.385-19.415-10.974-24,24.24-19.054,38.228S184.034,84.039,194.525,80.9l2.05,5.789s-18.795,7.6-30.743-8.562S161,41.469,171.13,30.676Z" transform="translate(-26.987 -23.639)" style="fill: #fff"/>
  <path d="M186.6,202.7s34.389,3.525,49.654-10.582,9.5-21.435,3.528-29.032-26.048-17.095-50.469-14.11-49.383,22.25-42.6,41.243S167.6,224.138,167.6,224.138l19.264-1.357S190.4,212.742,186.6,202.7Z" transform="translate(-26.987 -23.639)" style="fill: #fff;opacity: 0.65"/>
  <g>
    <path d="M379.8,167.708H360.858V97.592h18.347q13.713,0,20.344,5.586,7.809,6.585,7.811,18.3,0,12.76-8.311,19.027-5.676,4.222-16.3,4.223H379.8Zm0-38.737.863.046a7.291,7.291,0,0,0,5.494-2.112,7.97,7.97,0,0,0,2.044-5.79,8.609,8.609,0,0,0-2-5.9,6.423,6.423,0,0,0-5.086-2.316H379.8Z" transform="translate(-26.987 -23.639)" style="fill: #fff"/>
    <path d="M456.631,143.912q0,11.353-6.266,18.074t-16.8,6.721q-10.353,0-16.484-6.857-6.085-6.9-6.085-18.529t6.221-18.664q6.176-7.083,16.394-7.084,10.762,0,16.893,7.039T456.631,143.912Zm-17.665-.591a30.463,30.463,0,0,0-.363-4.927,16.108,16.108,0,0,0-1.044-3.769,6.976,6.976,0,0,0-1.635-2.429,3.106,3.106,0,0,0-2.134-.863q-2.316,0-3.724,3.27-1.408,2.86-1.408,8.582,0,5.632,1.408,8.583,1.407,3.27,3.769,3.27,2.224,0,3.678-3.224A22.554,22.554,0,0,0,438.966,143.321Z" transform="translate(-26.987 -23.639)" style="fill: #fff"/>
    <path d="M461.9,163.666l6.63-13.623q4.9,5.131,9.128,5.131,3.541,0,3.542-2.543,0-2.179-4.768-3.905-12.852-4.542-12.852-14.4a14.961,14.961,0,0,1,5.722-11.989q5.768-4.767,14.4-4.768a31.17,31.17,0,0,1,14.622,4L492.1,134.875q-4.587-4.314-7.493-4.314-2.861,0-2.861,2.316,0,2.5,5.449,4.677,6.812,2.681,9.265,5.677,2.587,3,2.588,8.265a15.726,15.726,0,0,1-5.5,12.4q-5.495,4.814-14.123,4.814a33.05,33.05,0,0,1-8.22-1.045,26.928,26.928,0,0,1-4.177-1.521Q464.759,165.12,461.9,163.666Z" transform="translate(-26.987 -23.639)" style="fill: #fff"/>
    <path d="M526.611,167.708H508.355V133.286h-5.177V118.618h5.177V104.177h18.256v14.441h6.039v14.668h-6.039Z" transform="translate(-26.987 -23.639)" style="fill: #fff"/>
    <path d="M590.777,167.708H572.749l-3.724-29.427-5.631,29.427H545.547l-12.215-49.09h17.892l2.77,15.758q.5,3,.976,6.4t.886,7.4q.363-4.133.976-7.924t1.385-7.334l3.224-14.305h15.531l2.634,15.8q.5,3.042.908,6.471t.772,7.289q.726-5.223,1.453-9.514t1.5-7.879l2.634-12.17h18.21Z" transform="translate(-26.987 -23.639)" style="fill: #fff"/>
    <path d="M652.628,143.912q0,11.353-6.267,18.074t-16.8,6.721q-10.355,0-16.484-6.857-6.087-6.9-6.086-18.529t6.222-18.664q6.175-7.083,16.393-7.084,10.762,0,16.893,7.039T652.628,143.912Zm-17.665-.591a30.463,30.463,0,0,0-.363-4.927,16.108,16.108,0,0,0-1.044-3.769,6.977,6.977,0,0,0-1.636-2.429,3.1,3.1,0,0,0-2.134-.863q-2.316,0-3.724,3.27-1.408,2.86-1.408,8.582,0,5.632,1.408,8.583,1.407,3.27,3.769,3.27,2.224,0,3.679-3.224A22.554,22.554,0,0,0,634.963,143.321Z" transform="translate(-26.987 -23.639)" style="fill: #fff"/>
    <path d="M703.9,143.912q0,11.353-6.266,18.074t-16.8,6.721q-10.353,0-16.484-6.857-6.086-6.9-6.085-18.529t6.221-18.664q6.175-7.083,16.394-7.084,10.762,0,16.893,7.039T703.9,143.912Zm-17.665-.591a30.463,30.463,0,0,0-.363-4.927,16.059,16.059,0,0,0-1.044-3.769,6.977,6.977,0,0,0-1.636-2.429,3.1,3.1,0,0,0-2.133-.863q-2.316,0-3.724,3.27-1.408,2.86-1.408,8.582,0,5.632,1.408,8.583,1.407,3.27,3.769,3.27,2.224,0,3.678-3.224A22.554,22.554,0,0,0,686.232,143.321Z" transform="translate(-26.987 -23.639)" style="fill: #fff"/>
    <path d="M736.14,167.708q.045-.772.09-1.771t.137-2.316q.09-.818.136-2.5a19.313,19.313,0,0,1-5.132,5.949,10.647,10.647,0,0,1-6.039,1.635q-7.4,0-11.626-6.63-4.177-6.63-4.178-18.438,0-12.4,4.087-19.209,4.088-6.855,11.535-6.857a10.941,10.941,0,0,1,6.584,1.817,18,18,0,0,1,5.087,6.312q-.136-2.361-.136-2.861l-.182-4.95V91.007h18.256v76.7Zm-7.766-24.75q0,10.082,4.5,10.082,4.224,0,4.224-10.4,0-9.945-4.088-9.945Q728.374,132.7,728.374,142.958Z" transform="translate(-26.987 -23.639)" style="fill: #fff"/>
    <path d="M851.939,167.708H833.685l-4.361-24.568q-1.27-7.129-1.907-12.352-.318-2.589-.545-4.314t-.317-2.634q-.229,1.863-.682,6.948-.227,2.589-.545,5.449t-.771,6.04l-3.588,25.431H802.532L786.91,97.592h18.71l3.088,19.3q1.772,11.535,2.452,18.119l.636,6.4.59-5.494q.952-9.627,2.452-18.3l3.543-20.027h16.3l3.178,16.848q2.271,11.762,3.95,27.837.5-7.219,1.09-12.806t1.318-10.127l3.451-21.752h18.482Z" transform="translate(-26.987 -23.639)" style="fill: #fff"/>
    <path d="M895.49,151.087l17.8.363q-1.907,8.583-7.425,12.92t-14.419,4.337q-10.535,0-16.529-6.539-5.951-6.63-5.949-18.12,0-11.67,6.4-19.027a20.848,20.848,0,0,1,16.529-7.4q10.083,0,16.077,7.129,5.994,7.176,5.994,19.028L913.882,147h-26.7q.318,7.539,4.268,7.538Q894.536,154.538,895.49,151.087Zm.409-13.9a9.233,9.233,0,0,0-.318-2.5,6.43,6.43,0,0,0-.886-1.953,4.537,4.537,0,0,0-1.34-1.3,3.141,3.141,0,0,0-1.679-.477,3.583,3.583,0,0,0-3.088,1.749,7.828,7.828,0,0,0-1.181,4.473Z" transform="translate(-26.987 -23.639)" style="fill: #fff"/>
    <path d="M939.63,167.708H921.012v-76.7h18.21v26.884q0,3.407-.273,7.811a19.672,19.672,0,0,1,5.04-6.312,11.415,11.415,0,0,1,6.631-1.817q7.448,0,11.534,6.857,4.088,6.811,4.087,19.209,0,11.853-4.222,18.438-4.181,6.63-11.581,6.63a10.868,10.868,0,0,1-6.085-1.635,14.985,14.985,0,0,1-2.52-2.316,24.624,24.624,0,0,1-2.611-3.633c.029.575.06,1.067.09,1.476s.061.749.091,1.022Zm7.766-24.477q0-10.534-4.632-10.536-4.087,0-4.087,9.945,0,10.4,4.222,10.4Q947.4,153.04,947.4,143.231Z" transform="translate(-26.987 -23.639)" style="fill: #fff"/>
    <path d="M1017.058,167.708H998.8q.226-2.452.363-4.678t.273-3.587q-4.725,9.264-12.67,9.264-6.9,0-10.945-6.9-4-6.857-4-18.982,0-11.716,4.133-18.437,4.131-6.812,11.262-6.812,7.311,0,11.807,8.81-.091-.907-.136-1.589t-.091-1.136l-.182-2.86-.136-2.18h18.574ZM998.62,142.549a44.5,44.5,0,0,0-.2-4.631,12.905,12.905,0,0,0-.659-3.111,3.634,3.634,0,0,0-1.181-1.726,2.958,2.958,0,0,0-1.77-.522q-4.632,0-4.632,12.306,0,8.811,4.132,8.81Q998.62,153.675,998.62,142.549Z" transform="translate(-26.987 -23.639)" style="fill: #fff"/>
    <path d="M1043.668,189.6h-18.21V118.618h18.21l-.409,6.948a24.488,24.488,0,0,1,2.316-3.7,11.883,11.883,0,0,1,2.543-2.474,9.457,9.457,0,0,1,2.929-1.385,13.061,13.061,0,0,1,3.474-.432q7.084,0,11.535,7.084,4.4,6.995,4.4,18.574,0,11.762-4.224,18.619-4.133,6.857-11.4,6.857-6.63,0-11.58-7.675.227,2.316.272,4,.137,1.727.137,4.133Zm7.947-46.91a19.95,19.95,0,0,0-1.113-7.471q-1.113-2.657-3.156-2.656-4.224,0-4.223,10.308,0,10.536,4.087,10.536,2.043,0,3.225-2.815A21.094,21.094,0,0,0,1051.615,142.686Z" transform="translate(-26.987 -23.639)" style="fill: #fff"/>
    <path d="M1095.71,189.6H1077.5V118.618h18.21l-.409,6.948a24.488,24.488,0,0,1,2.316-3.7,11.883,11.883,0,0,1,2.543-2.474,9.457,9.457,0,0,1,2.929-1.385,13.061,13.061,0,0,1,3.474-.432q7.084,0,11.535,7.084,4.4,6.995,4.4,18.574,0,11.762-4.224,18.619-4.133,6.857-11.4,6.857-6.63,0-11.58-7.675.227,2.316.272,4,.136,1.727.137,4.133Zm7.947-46.91a19.95,19.95,0,0,0-1.113-7.471q-1.113-2.657-3.156-2.656-4.224,0-4.223,10.308,0,10.536,4.087,10.536,2.043,0,3.225-2.815A21.094,21.094,0,0,0,1103.657,142.686Z" transform="translate(-26.987 -23.639)" style="fill: #fff"/>
  </g>
</svg>
